<?xml version="1.0" ?>
<svg width="0" height="0" display="none" xmlns="http://www.w3.org/2000/svg">
<symbol id="icon-nav-videos0" viewBox="0 0 40 40"><g clip-path="url(#clip0)"><path d="M20 39c10.493 0 19-8.507 19-19S30.493 1 20 1 1 9.507 1 20s8.507 19 19 19z"></path><path d="M20 33c7.18 0 13-5.82 13-13S27.18 7 20 7 7 12.82 7 20s5.82 13 13 13z"></path><path d="M17.1 17v6.6c0 .8.8 1.2 1.5.9l6-3.3c.7-.4.7-1.4 0-1.7l-6-3.3c-.7-.4-1.5 0-1.5.8z"></path></g></symbol>
<symbol id="icon-nav-videos"  viewBox="0 0 32 32">
<g id="layer1" transform="translate(0,-1020.3622)"><path d="M 6 7 C 4.900642 7 4 7.9007 4 9 L 4 23 C 4 24.0994 4.900642 25 6 25 L 26 25 C 27.099358 25 28 24.0994 28 23 L 28 9 C 28 7.9007 27.099358 7 26 7 L 6 7 z M 6 8 L 26 8 C 26.562662 8 27 8.4374 27 9 L 27 23 C 27 23.5627 26.562662 24 26 24 L 6 24 C 5.4373386 24 5 23.5627 5 23 L 5 9 C 5 8.4374 5.4373386 8 6 8 z M 12.486328 11.001953 A 0.50005 0.50005 0 0 0 12 11.5 L 12 20.5 A 0.50005 0.50005 0 0 0 12.769531 20.921875 L 19.769531 16.421875 A 0.50005 0.50005 0 0 0 19.769531 15.580078 L 12.769531 11.080078 A 0.50005 0.50005 0 0 0 12.486328 11.001953 z M 13 12.416016 L 18.576172 16.001953 L 13 19.585938 L 13 12.416016 z " id="rect4887" style="color:#000000;font-style:normal;font-variant:normal;font-weight:normal;font-stretch:normal;font-size:medium;line-height:normal;font-family:sans-serif;text-indent:0;text-align:start;text-decoration:none;text-decoration-line:none;text-decoration-style:solid;text-decoration-color:#000000;letter-spacing:normal;word-spacing:normal;text-transform:none;direction:ltr;block-progression:tb;writing-mode:lr-tb;baseline-shift:baseline;text-anchor:start;white-space:normal;clip-rule:nonzero;display:inline;overflow:visible;visibility:visible;opacity:1;isolation:auto;mix-blend-mode:normal;color-interpolation:sRGB;color-interpolation-filters:linearRGB;solid-color:#000000;solid-opacity:1;fill:#000000;fill-opacity:1;fill-rule:nonzero;stroke:none;stroke-width:1;stroke-linecap:round;stroke-linejoin:round;stroke-miterlimit:4.0999999;stroke-dasharray:none;stroke-dashoffset:0;stroke-opacity:1;color-rendering:auto;image-rendering:auto;shape-rendering:auto;text-rendering:auto;enable-background:accumulate" transform="translate(0,1020.3622)"/></g>
</symbol>
</svg>
